<?xml version="1.0" encoding="utf-8"?>
<!-- Generator: Adobe Illustrator 26.3.1, SVG Export Plug-In . SVG Version: 6.00 Build 0)  -->
<svg version="1.1" id="Capa_1" xmlns="http://www.w3.org/2000/svg" xmlns:xlink="http://www.w3.org/1999/xlink" x="0px" y="0px"
	 viewBox="0 0 24.6 19.9" style="enable-background:new 0 0 24.6 19.9;" xml:space="preserve">
<style type="text/css">
	.st0{fill:#E9E6E1;}
</style>
<g id="Grupo_11782" transform="translate(0 9.878)">
	<path id="Trazado_11752" class="st0" d="M21.7,10H2.9C1.3,10,0,8.7,0,7.1V0h1.6v7.1c0,0.7,0.6,1.3,1.3,1.3h18.8
		c0.7,0,1.3-0.6,1.3-1.3V0h1.6v7.1C24.5,8.7,23.3,10,21.7,10z"/>
</g>
<path class="st0" d="M24.6,2.9c0-1.6-1.3-2.9-2.9-2.9H2.9C1.3,0,0,1.3,0,2.9v3.4l0,0v0.4l12.1,6.4h0.4l12-6.3V6.7h0L24.6,2.9z
	 M12.3,11.2L1.6,5.5V2.9c0-0.7,0.6-1.3,1.3-1.3h18.8c0.7,0,1.3,0.6,1.3,1.3v2.7L12.3,11.2z"/>
</svg>
