<?xml version="1.0" encoding="utf-8"?>
<!-- Generator: Adobe Illustrator 26.3.1, SVG Export Plug-In . SVG Version: 6.00 Build 0)  -->
<svg version="1.1" id="Capa_1" xmlns="http://www.w3.org/2000/svg" xmlns:xlink="http://www.w3.org/1999/xlink" x="0px" y="0px"
	 viewBox="0 0 20.7 20.7" style="enable-background:new 0 0 20.7 20.7;" xml:space="preserve">
<style type="text/css">
	.st0{fill:#E9E6E1;}
</style>
<path id="Trazado_11934" class="st0" d="M10.4,0C4.6,0,0,4.6,0,10.4s4.6,10.4,10.4,10.4s10.4-4.6,10.4-10.4l0,0
	C20.7,4.6,16.1,0,10.4,0z M10.9,6.5c1.3,0,2.7-0.2,4-0.5c0.4,1.3,0.6,2.5,0.6,3.8h-4.6V6.5z M10.9,5.5V1.1c1.5,0.3,2.8,1.8,3.7,4
	C13.3,5.4,12.1,5.5,10.9,5.5z M9.9,1.1v4.4C8.7,5.5,7.5,5.3,6.3,4.9C7.1,2.8,8.4,1.4,9.9,1.1z M9.9,6.5v3.4H5.3c0-1.4,0.2-2.7,0.6-4
	C7.2,6.2,8.5,6.4,9.9,6.5z M4.3,9.9H1c0.1-1.9,0.8-3.8,2-5.3c0.6,0.4,1.3,0.7,2,1C4.6,7,4.4,8.4,4.3,9.9z M4.3,10.9
	c0,1.4,0.2,2.8,0.6,4.2c-0.7,0.2-1.4,0.6-2.1,1c-1.1-1.5-1.8-3.3-1.9-5.2L4.3,10.9z M5.3,10.9h4.6v3.4c-1.3,0-2.7,0.2-3.9,0.6
	C5.6,13.5,5.4,12.2,5.3,10.9z M9.9,15.2v4.4c-1.5-0.3-2.8-1.8-3.6-3.9C7.4,15.4,8.7,15.2,9.9,15.2z M10.9,19.6v-4.4
	c1.2,0,2.4,0.2,3.6,0.5C13.6,17.8,12.3,19.4,10.9,19.6L10.9,19.6z M10.9,14.2v-3.4h4.6c0,1.3-0.2,2.6-0.6,3.9
	C13.5,14.4,12.2,14.2,10.9,14.2L10.9,14.2z M16.4,10.9h3.3c-0.1,1.9-0.8,3.7-1.9,5.2c-0.7-0.4-1.4-0.7-2.1-1
	C16.1,13.7,16.4,12.3,16.4,10.9L16.4,10.9z M16.4,9.9c0-1.4-0.2-2.8-0.6-4.1c0.7-0.2,1.5-0.6,2.1-0.9c1.1,1.5,1.7,3.2,1.8,5.1H16.4z
	 M17.3,4.1c-0.6,0.3-1.2,0.6-1.8,0.8c-0.4-1.2-1.1-2.4-2-3.3C14.9,2,16.3,2.9,17.3,4.1L17.3,4.1z M7.2,1.5c-0.8,0.9-1.5,2-1.9,3.1
	C4.7,4.4,4.2,4.1,3.7,3.8C4.7,2.8,5.9,2,7.2,1.5z M3.5,16.8c0.6-0.3,1.1-0.6,1.7-0.8c0.4,1.2,1.1,2.3,2,3.2
	C5.8,18.7,4.6,17.9,3.5,16.8z M13.5,19.2c0.9-0.9,1.5-2,2-3.2c0.6,0.2,1.2,0.5,1.7,0.8C16.2,17.9,14.9,18.7,13.5,19.2z"/>
</svg>
