<?xml version="1.0" encoding="utf-8"?>
<!-- Generator: Adobe Illustrator 26.3.1, SVG Export Plug-In . SVG Version: 6.00 Build 0)  -->
<svg version="1.1" id="Capa_1" xmlns="http://www.w3.org/2000/svg" xmlns:xlink="http://www.w3.org/1999/xlink" x="0px" y="0px"
	 viewBox="0 0 20.7 20.6" style="enable-background:new 0 0 20.7 20.6;" xml:space="preserve">
<style type="text/css">
	.st0{fill:#E9E6E1;}
</style>
<g id="Grupo_12039" transform="translate(0 20.57) rotate(-90)">
	<g id="Grupo_11859">
		<g id="Grupo_11856">
			<path id="Trazado_11787" class="st0" d="M-0.1,13.9V6.8c0-3.7,3-6.7,6.7-6.7h7.3c3.7,0,6.7,3,6.7,6.7v7.1c0,3.7-3,6.7-6.7,6.7
				H6.6C2.9,20.6-0.1,17.6-0.1,13.9z M19,6.8c0-2.8-2.3-5-5-5H6.6c-2.8,0-5,2.3-5,5v7.1c0,2.8,2.3,5,5,5h7.3c2.8,0,5-2.3,5-5V6.8z"
				/>
		</g>
		<g id="Grupo_11857" transform="translate(5.097 5.195)">
			<path id="Trazado_11788" class="st0" d="M0,5.2C0,2.3,2.3,0,5.2,0c1.4,0,2.7,0.5,3.6,1.5c2,2,2,5.3,0,7.3c-1,1-2.3,1.5-3.7,1.5
				C2.4,10.3,0,8,0,5.2L0,5.2z M8.7,5.2L8.7,5.2c0-1.9-1.6-3.5-3.5-3.5S1.7,3.2,1.7,5.2v0c0,1.9,1.6,3.5,3.5,3.5
				C7.1,8.6,8.7,7.1,8.7,5.2L8.7,5.2z"/>
		</g>
		<g id="Grupo_11858" transform="translate(14.893 3.871)">
			<path id="Trazado_11789" class="st0" d="M0.1,12c0-0.5,0.4-0.9,0.9-0.9s0.9,0.4,0.9,0.9c0,0.5-0.4,0.9-0.9,0.9c0,0,0,0,0,0l0,0
				C0.5,12.9,0.1,12.5,0.1,12z"/>
		</g>
	</g>
</g>
</svg>
