<?xml version="1.0" encoding="utf-8"?>
<!-- Generator: Adobe Illustrator 26.3.1, SVG Export Plug-In . SVG Version: 6.00 Build 0)  -->
<svg version="1.1" id="Capa_1" xmlns="http://www.w3.org/2000/svg" xmlns:xlink="http://www.w3.org/1999/xlink" x="0px" y="0px"
	 viewBox="0 0 50 50" style="enable-background:new 0 0 50 50;" xml:space="preserve">
<style type="text/css">
	.st0{fill:#FFFFFF;}
</style>
<path id="Trazado_11499" class="st0" d="M23.06,2.69H6.3c-0.07,0-0.13,0.06-0.13,0.13v0.51c0,0.06,0.05,0.12,0.11,0.13l4.63,1.06
	v41.14l-4.63,1.06c-0.06,0.01-0.11,0.07-0.11,0.13v0.51c0,0.07,0.06,0.13,0.13,0.13h16.77c0.07,0,0.13-0.06,0.13-0.13V2.83
	C23.2,2.76,23.14,2.7,23.06,2.69z"/>
<path id="Trazado_11500" class="st0" d="M30.99,23.96c8.88-0.81,12.14-6.62,12.14-10.5v-0.19c0-6.62-5.22-10.57-13.96-10.57h-3.37
	c-0.07,0-0.13,0.06-0.13,0.13v0.51c0,0.07,0.06,0.13,0.13,0.13h1.1c3.17,0,4.46,2.87,4.46,9.91v0.51c0,7.36-0.98,9.72-4.05,9.72
	h-1.51c-0.07,0-0.13,0.06-0.13,0.13c0,0,0,0,0,0.01v0.51c0,0.07,0.06,0.13,0.13,0.13h1.38c1.53-0.13,2.97,0.72,3.59,2.13
	C31.61,28.18,32,30.94,32,35.2v1.53c0,9.3-1.66,9.98-4.4,9.98h-1.72c-0.07,0-0.13,0.07-0.13,0.14v0.51c0,0.07,0.06,0.13,0.13,0.13
	h3.71c5.24,0,9.29-1.34,12.02-3.99c2.1-2.03,3.29-4.81,3.31-7.73v-0.38C44.92,30.21,40.14,24.75,30.99,23.96z"/>
</svg>
