<?xml version="1.0" standalone="no"?>
<!DOCTYPE svg PUBLIC "-//W3C//DTD SVG 20010904//EN"
 "http://www.w3.org/TR/2001/REC-SVG-20010904/DTD/svg10.dtd">
<svg version="1.0" xmlns="http://www.w3.org/2000/svg"
 width="820.000000pt" height="860.000000pt" viewBox="0 0 820.000000 860.000000"
 preserveAspectRatio="xMidYMid meet">

<g transform="translate(0.000000,860.000000) scale(0.100000,-0.100000)"
fill="#E1DF3C" stroke="none">
<path d="M3795 8189 c-822 -68 -1564 -363 -2205 -875 -174 -139 -467 -432
-604 -604 -699 -875 -1002 -1977 -845 -3075 86 -604 302 -1165 643 -1670 668
-990 1733 -1625 2931 -1746 166 -17 601 -17 770 -1 1190 118 2263 758 2931
1747 568 841 793 1862 633 2870 -176 1105 -813 2089 -1754 2708 -541 355
-1131 565 -1790 637 -136 15 -575 21 -710 9z m570 -409 c733 -55 1417 -326
1997 -792 132 -106 336 -304 451 -437 427 -495 714 -1097 822 -1726 42 -247
50 -339 50 -625 0 -286 -8 -378 -50 -625 -226 -1317 -1202 -2418 -2490 -2810
-1650 -502 -3422 242 -4228 1775 -251 477 -386 996 -403 1550 -41 1287 596
2473 1699 3164 630 394 1397 582 2152 526z"/>
<path d="M4855 6282 c-330 -328 -1018 -1013 -1528 -1522 l-928 -925 565 -3
c311 -1 566 -4 566 -6 0 -2 -30 -82 -66 -178 -36 -95 -124 -326 -194 -513 -71
-187 -224 -592 -340 -900 -277 -733 -272 -717 -261 -713 8 3 367 349 836 808
99 97 333 324 520 505 187 181 412 399 500 485 338 330 1192 1158 1233 1194
23 21 42 42 42 47 0 5 -245 9 -565 9 -311 0 -565 2 -565 4 0 2 178 517 396
1145 217 628 394 1146 392 1152 -2 5 -273 -260 -603 -589z"/>
</g>
</svg>
